<svg width="177" height="40" viewBox="0 0 177 40" fill="none" xmlns="http://www.w3.org/2000/svg">
<path fill-rule="evenodd" clip-rule="evenodd" d="M21.4026 6.8615V24.1536C24.2462 21.4434 25.116 21.5627 25.1399 18.4755L25.1495 17.1204C25.1972 11.4136 25.1064 5.70201 25.0539 0C21.1876 0 17.3117 0.0238671 13.4359 0.00955244C12.3797 0.0190956 11.3714 -0.00476806 10.492 0.0334044C9.5123 0.0715769 8.68072 0.291062 7.93518 0.920907C7.18965 1.5603 5.39273 3.19694 4.81924 3.79816L21.3979 3.82202V6.86628L21.4026 6.8615ZM13.3786 29.4167C17.1063 29.3785 17.761 28.2858 19.9068 25.6424H13.3738V29.4167H13.3786ZM9.53619 29.4167L9.47885 25.6185H3.84907V4.73816C0.221748 8.14505 -0.0267581 8.14505 0.00191636 11.781C0.040149 17.6595 0.0210222 23.5381 0.0210222 29.4167H9.54098H9.53619Z" fill="#003399"/>
<path fill-rule="evenodd" clip-rule="evenodd" d="M127.159 30.0559L128.956 25.6852H139.131L140.928 30.0559H144.407L135.857 9.79589H132.235L123.651 30.0559H127.159ZM133.654 14.138C133.769 13.8183 133.883 13.4986 134.032 13.0072C134.175 13.4986 134.294 13.8183 134.409 14.138L137.974 22.7936H130.089L133.654 14.138ZM142.787 9.79589V12.8354H149.511V30.0559H152.813V12.8354H159.509V9.79589H142.782H142.787ZM160.326 20.0977C160.297 27.0164 165.865 30.4329 171.112 30.4329C173.258 30.4329 175.285 29.9414 177 29.1016V25.8283C175.667 26.8399 173.784 27.3934 171.695 27.3934C167.81 27.3934 163.69 25.0744 163.69 20.0977C163.719 14.744 167.753 12.4537 171.633 12.4537C173.545 12.4537 175.433 12.9738 176.852 13.9615V10.7502C175.113 9.88178 173.115 9.41895 171.084 9.41895C165.75 9.41895 160.326 12.8926 160.326 20.0977Z" fill="#404569"/>
<path fill-rule="evenodd" clip-rule="evenodd" d="M37.7666 9.92003V12.9357H44.4382V30.0274H47.7166V12.9357H54.3644V9.92003H37.7666ZM57.5042 9.92003V30.0274H66.0779C69.2703 30.0274 73.7292 29.0206 73.7292 24.4542C73.7292 21.3241 71.5691 19.9451 69.7578 19.4297C71.4544 18.881 72.9215 17.4448 72.9215 15.0065C72.9215 11.5901 70.2166 9.92481 66.0158 9.92481H57.4994L57.5042 9.92003ZM70.3886 24.1106C70.3886 26.8972 67.9991 27.1549 65.7577 27.1549H60.7827V21.0378H66.2213C68.0325 21.0378 70.3934 21.4386 70.3934 24.1106H70.3886ZM69.5857 15.5218C69.5857 17.4734 68.0325 18.2798 66.1352 18.2798L60.7827 18.2512V12.7639H65.6716C68.0899 12.7639 69.5857 13.513 69.5857 15.5218ZM76.0901 19.9737C76.0901 25.2892 79.5692 30.3996 86.6757 30.3996C93.7822 30.3996 97.2614 25.2845 97.2614 19.9737C97.2614 14.663 93.7536 9.54785 86.6757 9.54785C79.5979 9.54785 76.0901 14.6582 76.0901 19.9737ZM93.9256 19.9737C93.9256 23.8244 91.5695 27.3267 86.6757 27.3267C81.7819 27.3267 79.4259 23.8196 79.4259 19.9737C79.4259 16.1278 81.8154 12.6207 86.6757 12.6207C91.5361 12.6207 93.9256 16.1231 93.9256 19.9737ZM102.757 30.0274L108.167 22.9034H112.368V30.0274H115.647V9.92003H107.795C103.651 9.92003 99.9138 11.843 99.9138 16.4666C99.9138 19.7972 101.926 21.6962 104.659 22.4692L98.8767 30.0226H102.762L102.757 30.0274ZM103.245 16.4666C103.245 13.9711 105.199 12.907 107.732 12.907H112.368V20.0023H107.732C105.199 20.0023 103.245 18.9383 103.245 16.4666Z" fill="#404569"/>
<path fill-rule="evenodd" clip-rule="evenodd" d="M9.52637 40.0001H21.2781C24.6092 39.9667 26.5112 40.3722 29.4265 36.2114H13.364C13.364 29.3977 13.3831 22.1544 13.3353 15.3406C11.9255 16.6767 9.41166 18.3754 9.54547 20.7754L9.52637 40.0001ZM21.4024 14.3959V10.5929C17.8372 10.383 16.8814 11.9337 14.3389 14.3768L21.4024 14.3959ZM25.1635 14.4054L30.7073 14.3816L30.8745 34.8563C32.5663 33.4392 34.7982 32.0125 34.6978 29.4788L34.607 10.6025H25.1253L25.1588 14.4102L25.1635 14.4054Z" fill="#00A8DF"/>
</svg>
