<svg width="35" height="40" viewBox="0 0 35 40" fill="none" xmlns="http://www.w3.org/2000/svg">
<path fill-rule="evenodd" clip-rule="evenodd" d="M21.4026 6.86151V24.1536C24.2462 21.4434 25.116 21.5627 25.1399 18.4755L25.1495 17.1204C25.1972 11.4136 25.1064 5.70201 25.0539 0C21.1876 0 17.3117 0.0238671 13.4359 0.00955244C12.3797 0.0190956 11.3714 -0.00476806 10.492 0.0334044C9.5123 0.0715769 8.68072 0.291062 7.93518 0.920907C7.18965 1.5603 5.39273 3.19694 4.81924 3.79816L21.3979 3.82202V6.86628L21.4026 6.86151ZM13.3786 29.4167C17.1063 29.3785 17.761 28.2858 19.9068 25.6424H13.3738V29.4167H13.3786ZM9.53619 29.4167L9.47885 25.6185H3.84907V4.73815C0.221748 8.14505 -0.0267581 8.14505 0.00191636 11.781C0.040149 17.6595 0.0210222 23.5381 0.0210222 29.4167H9.54098H9.53619Z" fill="#003399"/>
<path fill-rule="evenodd" clip-rule="evenodd" d="M9.52661 40.0001H21.2784C24.6094 39.9667 26.5115 40.3722 29.4267 36.2114H13.3642C13.3642 29.3977 13.3833 22.1544 13.3355 15.3406C11.9257 16.6767 9.4119 18.3754 9.54572 20.7754L9.52661 40.0001ZM21.4026 14.3959V10.5929C17.8374 10.383 16.8816 11.9337 14.3392 14.3768L21.4026 14.3959ZM25.1638 14.4054L30.7075 14.3816L30.8748 34.8563C32.5666 33.4392 34.7984 32.0125 34.698 29.4788L34.6072 10.6025H25.1255L25.159 14.4102L25.1638 14.4054Z" fill="#00A8DF"/>
</svg>
