<svg width="32" height="32" viewBox="0 0 32 32" fill="none" xmlns="http://www.w3.org/2000/svg">
<path d="M9.99956 9.91235H9.67563L9.07031 12.9397H10.6049L9.99956 9.91235ZM22.2433 15.967C22.5701 16.8449 23.0048 17.5555 23.4859 18.1602C23.9669 17.5555 24.452 16.8449 24.7788 15.967H22.2433Z" fill="#00A8DF"/>
<path d="M26.5632 7.59155H17.1642L19.124 23.3175C19.1586 23.9608 18.9828 24.5663 18.563 25.0404L15.2441 28.8334H26.5632C27.8152 28.8334 28.8337 27.8149 28.8337 26.5629V9.91252C28.8337 8.66051 27.8152 7.59155 26.5632 7.59155ZM26.5632 15.9672H26.3611C25.9305 17.3488 25.2475 18.4299 24.5378 19.2822C25.0938 19.7905 25.6883 20.2075 26.2794 20.6745C26.6054 20.9354 26.6586 21.4114 26.3969 21.7381C26.1365 22.0643 25.6587 22.1172 25.3334 21.8556C24.6911 21.3487 24.0883 20.9243 23.4854 20.3711C22.8826 20.9243 22.3302 21.3487 21.6879 21.8556C21.3627 22.1172 20.8848 22.0643 20.6244 21.7381C20.3627 21.4114 20.416 20.9354 20.7419 20.6745C21.333 20.2075 21.8771 19.7905 22.433 19.2822C21.7233 18.43 21.0908 17.3489 20.6602 15.9672H20.4581C20.0398 15.9672 19.7012 15.6287 19.7012 15.2104C19.7012 14.792 20.0398 14.4535 20.4581 14.4535H22.7286V13.6967C22.7286 13.2784 23.0671 12.9399 23.4854 12.9399C23.9038 12.9399 24.2423 13.2784 24.2423 13.6967V14.4535H26.5632C26.9816 14.4535 27.3201 14.792 27.3201 15.2104C27.3201 15.6287 26.9816 15.9672 26.5632 15.9672Z" fill="#00A8DF"/>
<path d="M15.3195 4.98891C15.1783 3.85512 14.2093 3 13.0667 3H5.27051C4.0185 3 3 4.0185 3 5.27051V22.0218C3 23.2738 4.0185 24.2923 5.27051 24.2923H17.2059C17.4267 24.0399 17.6117 23.8819 17.6195 23.5525C17.6215 23.4699 15.3297 5.07085 15.3195 4.98891ZM12.281 17.466C11.8797 17.5486 11.4732 17.2881 11.3904 16.8725L10.9067 14.4534H8.76684L8.28312 16.8725C8.20183 17.2819 7.80712 17.551 7.39252 17.466C6.98308 17.384 6.71697 16.9856 6.79901 16.5754L8.31263 9.00706C8.38358 8.65377 8.69403 8.39876 9.05469 8.39876H10.6188C10.9795 8.39876 11.2899 8.65377 11.3609 9.00706L12.8745 16.5754C12.9566 16.9856 12.6905 17.384 12.281 17.466ZM11.8429 25.806L11.9728 26.8444C12.0594 27.5398 12.5214 28.249 13.2815 28.6031L15.8224 25.806H11.8429Z" fill="#00A8DF"/>
</svg>
