<svg width="32" height="32" viewBox="0 0 32 32" fill="none" xmlns="http://www.w3.org/2000/svg">
<g clip-path="url(#clip0_2035_3433)">
<path d="M31.0918 1H1.9082C1.40663 1 1 1.40663 1 1.9082V6.50977H32V1.9082C32 1.40663 31.5934 1 31.0918 1ZM21.9492 4.66309C21.4476 4.66309 21.041 4.25645 21.041 3.75488C21.041 3.25331 21.4476 2.84668 21.9492 2.84668C22.4508 2.84668 22.8574 3.25331 22.8574 3.75488C22.8574 4.25645 22.4508 4.66309 21.9492 4.66309ZM25.582 4.66309C25.0805 4.66309 24.6738 4.25645 24.6738 3.75488C24.6738 3.25331 25.0805 2.84668 25.582 2.84668C26.0836 2.84668 26.4902 3.25331 26.4902 3.75488C26.4902 4.25645 26.0836 4.66309 25.582 4.66309ZM29.2148 4.66309C28.7133 4.66309 28.3066 4.25645 28.3066 3.75488C28.3066 3.25331 28.7133 2.84668 29.2148 2.84668C29.7164 2.84668 30.123 3.25331 30.123 3.75488C30.123 4.25645 29.7164 4.66309 29.2148 4.66309ZM10.1729 18.1601H18.2041V17.6989C18.2041 16.8698 19.2301 16.474 19.7864 17.0903L20.7522 18.16H22.9482C23.9332 18.16 24.7344 17.3588 24.7344 16.3739C24.7344 15.389 23.9332 14.5877 22.9482 14.5877H10.1729C9.18794 14.5877 8.38672 15.389 8.38672 16.3739C8.38672 17.3588 9.18794 18.1601 10.1729 18.1601ZM20.0205 23.9665L22.638 22.9597L20.0205 20.0603V23.9665Z" fill="#00A8DF"/>
<path d="M1 31.0918C1 31.5934 1.40663 32 1.9082 32H31.0918C31.5934 32 32 31.5934 32 31.0918V8.32617H1V31.0918ZM10.1729 12.7714H22.9482C24.9347 12.7714 26.5508 14.3875 26.5508 16.3739C26.5508 18.3604 24.9347 19.9765 22.9482 19.9765H22.3919L24.8724 22.724C25.2978 23.1953 25.1207 23.9509 24.5243 24.1803L22.8289 24.8324L23.4013 26.3205C23.5813 26.7887 23.3478 27.3142 22.8796 27.4942C22.4106 27.6747 21.8856 27.4399 21.7059 26.9726L21.1336 25.4845L19.4383 26.1365C18.8436 26.3653 18.204 25.9248 18.204 25.2889V19.9765H10.1729C8.18637 19.9765 6.57031 18.3605 6.57031 16.374C6.57031 14.3875 8.18637 12.7714 10.1729 12.7714Z" fill="#00A8DF"/>
</g>
<defs>
<clipPath id="clip0_2035_3433">
<rect width="31" height="31" fill="white" transform="translate(1 1)"/>
</clipPath>
</defs>
</svg>
