<svg width="32" height="32" viewBox="0 0 32 32" fill="none" xmlns="http://www.w3.org/2000/svg">
<g clip-path="url(#clip0_2035_3436)">
<path d="M6.78418 15.4121H4.76595C3.79221 15.4121 3 16.2043 3 17.1781V22.4255C3 23.3992 3.79221 24.1914 4.76595 24.1914H6.78418C7.75792 24.1914 8.55013 23.3992 8.55013 22.4255V17.1781C8.55013 16.2043 7.75792 15.4121 6.78418 15.4121ZM27.0674 15.4121H25.0492C24.0754 15.4121 23.2832 16.2043 23.2832 17.1781V22.4255C23.2832 23.3992 24.0754 24.1914 25.0492 24.1914H25.3014V25.5537C25.3014 25.6928 25.1883 25.806 25.0492 25.806H19.6247C19.6746 26.0506 19.7008 26.3037 19.7008 26.5628C19.7008 26.822 19.6746 27.0751 19.6247 27.3197H25.0492C26.0229 27.3197 26.8151 26.5275 26.8151 25.5537V24.1914H27.0674C28.0411 24.1914 28.8333 23.3992 28.8333 22.4255V17.1781C28.8333 16.2043 28.0411 15.4121 27.0674 15.4121ZM15.9167 4.51367C21.0997 4.51367 25.3014 8.71537 25.3014 13.8984H26.8151C26.8151 7.87937 21.9357 3 15.9167 3C9.8976 3 5.01823 7.87937 5.01823 13.8984H6.5319C6.5319 8.71537 10.7336 4.51367 15.9167 4.51367Z" fill="#00A8DF"/>
<path d="M20.0435 18.1366C20.4584 18.1365 20.7966 17.802 20.8001 17.3862C20.8023 17.1386 20.8063 16.6531 20.8108 16.0517H20.9623C21.3803 16.0517 21.7192 15.7129 21.7192 15.2949C21.7192 14.8769 21.3803 14.5381 20.9623 14.5381H20.8209C20.8309 12.8336 20.8363 10.9953 20.8153 10.7427C20.7697 10.1955 20.442 9.74945 19.9804 9.60651C19.5226 9.46478 19.0353 9.64345 18.676 10.0841C18.2764 10.5744 16.4225 13.9166 15.8638 14.9292C15.8003 15.0445 15.7679 15.1743 15.7698 15.3059C15.7718 15.4374 15.808 15.5662 15.8749 15.6796C15.9418 15.7929 16.0371 15.8868 16.1513 15.9521C16.2656 16.0173 16.3949 16.0516 16.5265 16.0517H19.297C19.2936 16.5196 19.29 16.9689 19.2866 17.3732C19.2829 17.7911 19.6189 18.1329 20.0368 18.1365C20.0391 18.1366 20.0412 18.1366 20.0435 18.1366ZM19.3069 14.5381H17.8124C18.3749 13.5315 18.9248 12.5646 19.3164 11.8987C19.3167 12.5897 19.3128 13.5461 19.3069 14.5381ZM15.434 17.3542C15.4287 16.9395 15.091 16.6069 14.6774 16.6069L14.6677 16.6069C13.9456 16.616 13.1783 16.6219 12.5529 16.6227C12.9399 16.1063 13.4859 15.3618 14.2328 14.2947C14.6734 13.6651 14.9607 13.0705 15.0866 12.5276C15.0923 12.5029 15.0968 12.4778 15.1 12.4526L15.1343 12.1846C15.1384 12.1528 15.1404 12.1207 15.1404 12.0887C15.1404 10.6938 14.0056 9.55903 12.6108 9.55903C11.4047 9.55903 10.3608 10.417 10.1286 11.5992C10.048 12.0094 10.3152 12.4072 10.7254 12.4877C11.1355 12.568 11.5333 12.301 11.6139 11.8909C11.707 11.4169 12.1262 11.0728 12.6108 11.0728C13.157 11.0728 13.604 11.5061 13.6259 12.0472L13.6038 12.2197C13.5167 12.5657 13.3112 12.9717 12.9927 13.4269C11.8949 14.9953 11.2398 15.8531 10.8879 16.3139C10.7355 16.5134 10.6348 16.6452 10.5654 16.7463C10.4863 16.8615 10.2761 17.1675 10.3942 17.5513C10.4701 17.7981 10.6571 17.9876 10.9073 18.0709C11.0067 18.104 11.1084 18.138 12.4643 18.138C12.9912 18.138 13.7076 18.1328 14.6867 18.1206C15.1046 18.1153 15.4392 17.7722 15.434 17.3542Z" fill="#00A8DF"/>
<path d="M15.917 28.8333C17.171 28.8333 18.1875 27.8167 18.1875 26.5627C18.1875 25.3088 17.171 24.2922 15.917 24.2922C14.663 24.2922 13.6465 25.3088 13.6465 26.5627C13.6465 27.8167 14.663 28.8333 15.917 28.8333Z" fill="#00A8DF"/>
</g>
<defs>
<clipPath id="clip0_2035_3436">
<rect width="25.8333" height="25.8333" fill="white" transform="translate(3 3)"/>
</clipPath>
</defs>
</svg>
