<svg width="32" height="32" viewBox="0 0 32 32" fill="none" xmlns="http://www.w3.org/2000/svg">
<path d="M26.4111 4.6145H19.9528C19.7387 4.6145 19.5334 4.69956 19.382 4.85095C19.2306 5.00235 19.1455 5.20769 19.1455 5.42179V9.45825C19.1455 9.67236 19.2306 9.8777 19.382 10.0291C19.5334 10.1805 19.7387 10.2655 19.9528 10.2655H22.3747C22.1606 10.2655 21.9552 10.3506 21.8038 10.502C21.6524 10.6534 21.5674 10.8587 21.5674 11.0728C21.5674 11.2869 21.6524 11.4923 21.8038 11.6437C21.9552 11.7951 22.1606 11.8801 22.3747 11.8801H23.9893C24.2034 11.8801 24.4087 11.7951 24.5601 11.6437C24.7115 11.4923 24.7965 11.2869 24.7965 11.0728C24.7965 10.8587 24.7115 10.6534 24.5601 10.502C24.4087 10.3506 24.2034 10.2655 23.9893 10.2655H26.4111C26.6252 10.2655 26.8306 10.1805 26.982 10.0291C27.1334 9.8777 27.2184 9.67236 27.2184 9.45825V5.42179C27.2184 5.20769 27.1334 5.00235 26.982 4.85095C26.8306 4.69956 26.6252 4.6145 26.4111 4.6145ZM11.8799 19.953H5.42155C5.20744 19.953 5.0021 20.0381 4.85071 20.1895C4.69931 20.3409 4.61426 20.5462 4.61426 20.7603V24.7968C4.61426 25.0109 4.69931 25.2162 4.85071 25.3676C5.0021 25.519 5.20744 25.6041 5.42155 25.6041H7.84342C7.62932 25.6041 7.42398 25.6891 7.27258 25.8405C7.12119 25.9919 7.03613 26.1973 7.03613 26.4114C7.03613 26.6255 7.12119 26.8308 7.27258 26.9822C7.42398 27.1336 7.62932 27.2187 7.84342 27.2187H9.45801C9.67211 27.2187 9.87745 27.1336 10.0288 26.9822C10.1802 26.8308 10.2653 26.6255 10.2653 26.4114C10.2653 26.1973 10.1802 25.9919 10.0288 25.8405C9.87745 25.6891 9.67211 25.6041 9.45801 25.6041H11.8799C12.094 25.6041 12.2993 25.519 12.4507 25.3676C12.6021 25.2162 12.6872 25.0109 12.6872 24.7968V20.7603C12.6872 20.5462 12.6021 20.3409 12.4507 20.1895C12.2993 20.0381 12.094 19.953 11.8799 19.953ZM23.182 12.6874C22.9679 12.6874 22.7625 12.7725 22.6111 12.9239C22.4597 13.0753 22.3747 13.2806 22.3747 13.4947V15.1093H18.6724L16.4871 12.924C16.3357 12.7726 16.1304 12.6876 15.9163 12.6876C15.7023 12.6876 15.497 12.7726 15.3456 12.924L13.1602 15.1093H8.65072C8.43661 15.1093 8.23127 15.1943 8.07987 15.3457C7.92848 15.4971 7.84342 15.7025 7.84342 15.9166V18.3385C7.84342 18.5526 7.92848 18.7579 8.07987 18.9093C8.23127 19.0607 8.43661 19.1458 8.65072 19.1458C8.86482 19.1458 9.07016 19.0607 9.22156 18.9093C9.37295 18.7579 9.45801 18.5526 9.45801 18.3385V16.7239H13.1602L15.3456 18.9092C15.4204 18.9844 15.5093 19.0441 15.6073 19.0849C15.7052 19.1256 15.8103 19.1466 15.9163 19.1466C16.0224 19.1466 16.1275 19.1256 16.2254 19.0849C16.3234 19.0441 16.4123 18.9844 16.4871 18.9092L18.6724 16.7239H23.182C23.3961 16.7239 23.6014 16.6388 23.7528 16.4874C23.9042 16.336 23.9893 16.1307 23.9893 15.9166V13.4947C23.9893 13.2806 23.9042 13.0753 23.7528 12.9239C23.6014 12.7725 23.3961 12.6874 23.182 12.6874Z" fill="#00A8DF"/>
</svg>
