<svg width="319" height="148" viewBox="0 0 319 148" fill="none" xmlns="http://www.w3.org/2000/svg">
<g opacity="0.7">
<path fill-rule="evenodd" clip-rule="evenodd" d="M168.772 16.4622V56.03C175.278 49.8285 177.269 50.1014 177.323 43.0373L177.345 39.9365C177.454 26.8782 177.247 13.8091 177.126 0.761719C168.28 0.761719 159.411 0.816331 150.542 0.783577C148.125 0.805413 145.818 0.750808 143.806 0.838155C141.564 0.925501 139.661 1.42773 137.955 2.86894C136.249 4.33199 132.138 8.07696 130.826 9.45266L168.761 9.50727V16.4731L168.772 16.4622ZM150.411 68.0729C158.941 67.9856 160.439 65.4853 165.349 59.4366H150.4V68.0729H150.411ZM141.619 68.0729L141.488 59.382H128.606V11.6036C120.306 19.3992 119.737 19.3992 119.803 27.719C119.89 41.1703 119.846 54.6216 119.846 68.0729H141.63H141.619Z" fill="#003399"/>
<path fill-rule="evenodd" clip-rule="evenodd" d="M141.597 92.2898H168.487C176.11 92.2134 180.462 93.1414 187.132 83.6207H150.378C150.378 68.0294 150.422 51.4554 150.313 35.8641C147.087 38.9212 141.335 42.8081 141.641 48.3L141.597 92.2898ZM168.772 33.7023V25.0004C160.614 24.52 158.427 28.0685 152.609 33.6586L168.772 33.7023ZM177.378 33.7241L190.063 33.6695L190.446 80.5199C194.317 77.2772 199.424 74.0126 199.194 68.215L198.987 25.0222H177.291L177.367 33.735L177.378 33.7241Z" fill="#00A8DF"/>
<path fill-rule="evenodd" clip-rule="evenodd" d="M0.20816 100.191V107.092H15.4741V146.201H22.9758V107.092H38.1871V100.191H0.20816ZM45.3717 100.191V146.201H64.99C72.2949 146.201 82.4978 143.897 82.4978 133.449C82.4978 126.286 77.5549 123.131 73.4104 121.952C77.2925 120.696 80.6497 117.41 80.6497 111.83C80.6497 104.013 74.4602 100.202 64.8479 100.202H45.3608L45.3717 100.191ZM74.8538 132.662C74.8538 139.039 69.386 139.628 64.2573 139.628H52.8735V125.631H65.3181C69.4626 125.631 74.8647 126.548 74.8647 132.662H74.8538ZM73.0166 113.01C73.0166 117.475 69.4626 119.32 65.1212 119.32L52.8735 119.255V106.699H64.0605C69.5938 106.699 73.0166 108.413 73.0166 113.01ZM87.8999 123.196C87.8999 135.359 95.8609 147.053 112.122 147.053C128.383 147.053 136.344 135.348 136.344 123.196C136.344 111.044 128.317 99.3398 112.122 99.3398C95.9265 99.3398 87.8999 111.033 87.8999 123.196ZM128.711 123.196C128.711 132.007 123.32 140.021 112.122 140.021C100.924 140.021 95.5329 131.996 95.5329 123.196C95.5329 114.396 101.001 106.371 112.122 106.371C123.243 106.371 128.711 114.385 128.711 123.196ZM148.92 146.201L161.299 129.9H170.911V146.201H178.413V100.191H160.446C150.965 100.191 142.413 104.592 142.413 115.171C142.413 122.792 147.017 127.138 153.272 128.907L140.04 146.19H148.931L148.92 146.201ZM150.035 115.171C150.035 109.461 154.508 107.026 160.304 107.026H170.911V123.262H160.304C154.508 123.262 150.035 120.827 150.035 115.171Z" fill="#404569"/>
<path fill-rule="evenodd" clip-rule="evenodd" d="M204.745 146.376L208.857 136.375H232.138L236.25 146.376H244.211L224.648 100.017H216.359L196.718 146.376H204.745ZM219.606 109.952C219.869 109.221 220.131 108.489 220.47 107.365C220.798 108.489 221.072 109.221 221.334 109.952L229.492 129.758H211.449L219.606 109.952ZM240.504 100.017V106.972H255.89V146.376H263.447V106.972H278.767V100.017H240.493H240.504ZM280.637 123.589C280.572 139.421 293.312 147.238 305.319 147.238C310.229 147.238 314.866 146.114 318.791 144.192V136.702C315.74 139.017 311.432 140.283 306.653 140.283C297.762 140.283 288.336 134.977 288.336 123.589C288.402 111.339 297.631 106.098 306.511 106.098C310.885 106.098 315.205 107.288 318.452 109.548V102.2C314.472 100.213 309.901 99.1543 305.253 99.1543C293.049 99.1543 280.637 107.103 280.637 123.589Z" fill="#404569"/>
</g>
</svg>
