<svg width="81" height="13" viewBox="0 0 81 13" fill="none" xmlns="http://www.w3.org/2000/svg">
<path fill-rule="evenodd" clip-rule="evenodd" d="M52.279 12.3111L53.3145 9.79241H59.1776L60.2131 12.3111H62.218L57.2912 0.636159H55.2037L50.2576 12.3111H52.279ZM56.0216 3.13832C56.0877 2.95409 56.1538 2.76987 56.2392 2.48666C56.3218 2.76987 56.3906 2.95409 56.4567 3.13832L58.5112 8.12614H53.9671L56.0216 3.13832ZM61.2844 0.636159V2.38767H65.1592V12.3111H67.0622V2.38767H70.9205V0.636159H61.2816H61.2844ZM71.3914 6.57259C71.3749 10.5595 74.5833 12.5283 77.6071 12.5283C78.8436 12.5283 80.0113 12.2451 81 11.7611V9.87489C80.2316 10.4578 79.1466 10.7768 77.9431 10.7768C75.7041 10.7768 73.3302 9.44045 73.3302 6.57259C73.3467 3.48752 75.6711 2.1677 77.9073 2.1677C79.0089 2.1677 80.0967 2.46741 80.9146 3.03658V1.18608C79.9122 0.685653 78.761 0.418945 77.5906 0.418945C74.5172 0.418945 71.3914 2.42066 71.3914 6.57259Z" fill="#404569"/>
<path fill-rule="evenodd" clip-rule="evenodd" d="M0.766113 0.707634V2.4454H4.61063V12.2945H6.49984V2.4454H10.3306V0.707634H0.766113ZM12.14 0.707634V12.2945H17.0806C18.9202 12.2945 21.4896 11.7144 21.4896 9.08298C21.4896 7.27923 20.2449 6.48459 19.2011 6.18763C20.1788 5.87142 21.0242 5.04379 21.0242 3.63873C21.0242 1.67 19.4655 0.710387 17.0448 0.710387H12.1372L12.14 0.707634ZM19.5646 8.88501C19.5646 10.4908 18.1876 10.6393 16.896 10.6393H14.0292V7.11425H17.1632C18.2069 7.11425 19.5674 7.34522 19.5674 8.88501H19.5646ZM19.102 3.93569C19.102 5.06028 18.2069 5.52497 17.1136 5.52497L14.0292 5.50847V2.34641H16.8465C18.24 2.34641 19.102 2.7781 19.102 3.93569ZM22.8501 6.50109C22.8501 9.56417 24.855 12.509 28.9501 12.509C33.0452 12.509 35.0501 9.56142 35.0501 6.50109C35.0501 3.44076 33.0287 0.493164 28.9501 0.493164C24.8715 0.493164 22.8501 3.43801 22.8501 6.50109ZM33.1279 6.50109C33.1279 8.72004 31.7702 10.7383 28.9501 10.7383C26.1301 10.7383 24.7724 8.71729 24.7724 6.50109C24.7724 4.28489 26.1493 2.26392 28.9501 2.26392C31.7509 2.26392 33.1279 4.28215 33.1279 6.50109ZM38.2172 12.2945L41.3347 8.18935H43.7554V12.2945H45.6446V0.707634H41.1199C38.7322 0.707634 36.5786 1.81573 36.5786 4.48012C36.5786 6.39935 37.738 7.4937 39.3133 7.93914L35.981 12.2918H38.2199L38.2172 12.2945ZM38.4981 4.48012C38.4981 3.04206 39.6245 2.4289 41.084 2.4289H43.7554V6.51759H41.084C39.6245 6.51759 38.4981 5.90442 38.4981 4.48012Z" fill="#404569"/>
</svg>
