<svg width="24" height="24" viewBox="0 0 24 24" fill="none" xmlns="http://www.w3.org/2000/svg">
<path d="M11.985 15.4078L15.227 19.0938C16.427 20.4588 17.028 21.1418 17.657 20.9748C18.285 20.8088 18.501 19.9108 18.932 18.1138L21.322 8.14579C21.987 5.37779 22.319 3.9948 21.581 3.3118C20.843 2.6288 19.564 3.1368 17.006 4.1518L5.13998 8.86479C3.09398 9.67779 2.07099 10.0838 2.00599 10.7818C1.99833 10.8529 1.99833 10.9247 2.00599 10.9958C2.06899 11.6948 3.08998 12.1038 5.13398 12.9228C6.05898 13.2938 6.52199 13.4798 6.85399 13.8348C6.89132 13.8748 6.92732 13.9161 6.96199 13.9588C7.26799 14.3388 7.39799 14.8388 7.65899 15.8348L8.14798 17.7018C8.40098 18.6718 8.52799 19.1578 8.86099 19.2238C9.19399 19.2898 9.48299 18.8878 10.062 18.0828L11.985 15.4078ZM11.985 15.4078L11.668 15.0778C11.306 14.6998 11.125 14.5118 11.125 14.2778C11.125 14.0438 11.305 13.8548 11.668 13.4778L15.241 9.75379" stroke="#404569" stroke-opacity="0.6" stroke-width="1.5" stroke-linecap="round" stroke-linejoin="round"/>
</svg>
